<?xml version="1.0" standalone="no"?><!DOCTYPE svg PUBLIC "-//W3C//DTD SVG 1.1//EN" "http://www.w3.org/Graphics/SVG/1.1/DTD/svg11.dtd"><svg t="1621075592990" class="icon" viewBox="0 0 1024 1024" version="1.1" xmlns="http://www.w3.org/2000/svg" p-id="3542" data-spm-anchor-id="a313x.7781069.0.i3" xmlns:xlink="http://www.w3.org/1999/xlink" width="16" height="16"><defs><style type="text/css"></style></defs><path d="M351 872.4c-21.1 0-42.1-6.6-60-19.6-31.7-23.1-47.3-61.4-40.7-100l23-134.1-97.2-94.4c-28.1-27.4-38-67.5-25.9-104.8 12.1-37.3 43.7-63.9 82.5-69.6l134.6-19.6L427 208.6c17.3-35.2 52.5-57 91.7-57 28.4 0 51.4 23 51.4 51.4s-23 51.4-51.4 51.4h-0.1L459.2 376.2c-14.9 30.2-43.7 51.1-77 55.9L248.9 451.5l96.5 94.1c24.1 23.5 35.1 57.3 29.4 90.5L352 768.8l119.3-62.7c14.6-7.7 31-11.7 47.6-11.7 28.4 0 51.4 23 51.4 51.4s-23 51.4-51.4 51.4l-120.1 63.3c-15.2 7.9-31.5 11.9-47.8 11.9z" fill="#DA2048" opacity=".6" p-id="3543" data-spm-anchor-id="a313x.7781069.0.i5" class="selected"></path><path d="M686.7 872.4c-16.3 0-32.6-3.9-47.7-11.8l-120.4-63.3c-28.4 0-51.3-23-51.3-51.4s23.2-51.4 51.6-51.4c16.5 0 33 4.1 47.6 11.8L685.7 769l-22.8-133c-5.7-33.2 5.3-67 29.4-90.5l96.5-94-133.3-19.4c-33.3-4.8-62.1-25.7-77-55.9l-60.2-122c-28.4 0-51.2-22.8-51.2-51.3s23.3-51.3 51.7-51.3c39.2 0 74.3 21.8 91.7 57l60.2 122 134.2 19.2c38.8 5.6 70.4 32.3 82.5 69.6 12.1 37.3 2.2 77.4-25.9 104.8l-97.4 95 23.2 133.5c6.6 38.6-9 77-40.7 100-17.9 13.1-38.8 19.7-59.9 19.7z" fill="#DA2048" opacity=".6" p-id="3544" data-spm-anchor-id="a313x.7781069.0.i4" class=""></path></svg>